<svg width="224" height="292" viewBox="0 0 224 292" fill="none" xmlns="http://www.w3.org/2000/svg">
<path d="M-60 1C-60 1 198.977 85.1446 203 292" stroke="#1EA81E"/>
<path d="M-90 1C-90 1 168.977 85.1446 173 292" stroke="#1EA81E"/>
<path d="M-120 1C-120 1 138.977 85.1446 143 292" stroke="#1EA81E"/>
<path d="M-150 1C-150 1 108.977 85.1446 113 292" stroke="#1EA81E"/>
<path d="M-180 1C-180 1 78.977 85.1446 83 292" stroke="#1EA81E"/>
<path d="M-210 1C-210 1 48.977 85.1446 53 292" stroke="#1EA81E"/>
<path d="M-240 1C-240 1 18.977 85.1446 23 292" stroke="#1EA81E"/>
<path d="M-50 1C-50 1 208.977 85.1446 213 292" stroke="#1EA81E"/>
<path d="M-80 1C-80 1 178.977 85.1446 183 292" stroke="#1EA81E"/>
<path d="M-110 1C-110 1 148.977 85.1446 153 292" stroke="#1EA81E"/>
<path d="M-140 1C-140 1 118.977 85.1446 123 292" stroke="#1EA81E"/>
<path d="M-170 1C-170 1 88.977 85.1446 93 292" stroke="#1EA81E"/>
<path d="M-200 1C-200 1 58.977 85.1446 63 292" stroke="#1EA81E"/>
<path d="M-230 1C-230 1 28.977 85.1446 33 292" stroke="#1EA81E"/>
<path d="M-40 1C-40 1 218.977 85.1446 223 292" stroke="#1EA81E"/>
<path d="M-70 1C-70 1 188.977 85.1446 193 292" stroke="#1EA81E"/>
<path d="M-100 1C-100 1 158.977 85.1446 163 292" stroke="#1EA81E"/>
<path d="M-130 1C-130 1 128.977 85.1446 133 292" stroke="#1EA81E"/>
<path d="M-160 1C-160 1 98.977 85.1446 103 292" stroke="#1EA81E"/>
<path d="M-190 1C-190 1 68.977 85.1446 73 292" stroke="#1EA81E"/>
<path d="M-220 1C-220 1 38.977 85.1446 43 292" stroke="#1EA81E"/>
<path d="M-250 1C-250 1 8.97705 85.1446 13 292" stroke="#1EA81E"/>
</svg>
