<svg width="100" height="86" viewBox="0 0 100 86" fill="none" xmlns="http://www.w3.org/2000/svg">
<g id="Desenho de Cima">
<path id="Vector 61" d="M16.6435 -1C-19.5704 31.6515 6.50291 50.5838 101 85" stroke="#1EA81E"/>
<path id="Vector 63" d="M24.6435 -3C-11.5704 29.6515 14.5029 48.5838 109 83" stroke="#1EA81E"/>
<path id="Vector 65" d="M32.6435 -5C-3.57042 27.6515 22.5029 46.5838 117 81" stroke="#1EA81E"/>
<path id="Vector 67" d="M40.6435 -7C4.42958 25.6515 30.5029 44.5838 125 79" stroke="#1EA81E"/>
<path id="Vector 69" d="M48.6435 -9C12.4296 23.6515 38.5029 42.5838 133 77" stroke="#1EA81E"/>
<path id="Vector 71" d="M56.6435 -11C20.4296 21.6515 46.5029 40.5838 141 75" stroke="#1EA81E"/>
<path id="Vector 73" d="M64.6435 -13C28.4296 19.6515 54.5029 38.5838 149 73" stroke="#1EA81E"/>
<path id="Vector 75" d="M72.6435 -15C36.4296 17.6515 62.5029 36.5838 157 71" stroke="#1EA81E"/>
<path id="Vector 77" d="M80.6435 -17C44.4296 15.6515 70.5029 34.5838 165 69" stroke="#1EA81E"/>
<path id="Vector 79" d="M88.6435 -19C52.4296 13.6515 78.5029 32.5838 173 67" stroke="#1EA81E"/>
<path id="Vector 81" d="M96.6435 -21C60.4296 11.6515 86.5029 30.5838 181 65" stroke="#1EA81E"/>
</g>
</svg>
